<?xml version="1.0" encoding="UTF-8" standalone="no"?>
<svg width="23px" height="23px" viewBox="0 0 23 23" version="1.1" xmlns="http://www.w3.org/2000/svg" xmlns:xlink="http://www.w3.org/1999/xlink">
    <!-- Generator: Sketch 3.7.1 (28215) - http://www.bohemiancoding.com/sketch -->
    <title>Fill 50</title>
    <desc>Created with Sketch.</desc>
    <defs></defs>
    <g id="Page-1" stroke="none" stroke-width="1" fill="none" fill-rule="evenodd">
        <g id="GitHub-Mark" transform="translate(-141.000000, -336.000000)" fill="#FFFFFF">
            <path d="M152.608471,336.443807 C146.438674,336.443807 141.43506,341.446735 141.43506,347.61859 C141.43506,352.555663 144.636577,356.743634 149.076993,358.221258 C149.636075,358.324156 149.839814,357.979103 149.839814,357.682755 C149.839814,357.417277 149.83021,356.714823 149.824722,355.782562 C146.7165,356.457576 146.060693,354.284359 146.060693,354.284359 C145.552374,352.993325 144.819736,352.649644 144.819736,352.649644 C143.805156,351.956793 144.896567,351.970513 144.896567,351.970513 C146.018161,352.049402 146.608113,353.122291 146.608113,353.122291 C147.604857,354.829721 149.223794,354.336494 149.860394,354.050436 C149.96192,353.328774 150.250722,352.836233 150.569708,352.557035 C148.08848,352.275093 145.479659,351.316078 145.479659,347.034126 C145.479659,345.814436 145.915263,344.81632 146.630065,344.035662 C146.514818,343.753034 146.13135,342.616348 146.739823,341.078358 C146.739823,341.078358 147.677572,340.777894 149.812374,342.223962 C150.703476,341.975633 151.659746,341.852155 152.609843,341.847353 C153.559254,341.852155 154.514838,341.975633 155.407312,342.223962 C157.540742,340.777894 158.477119,341.078358 158.477119,341.078358 C159.086964,342.616348 158.703496,343.753034 158.588935,344.035662 C159.305109,344.81632 159.737283,345.814436 159.737283,347.034126 C159.737283,351.327054 157.124346,352.271663 154.635573,352.548117 C155.036191,352.89317 155.393592,353.575045 155.393592,354.617064 C155.393592,356.111151 155.379872,357.316436 155.379872,357.682755 C155.379872,357.981847 155.581553,358.329644 156.148181,358.220572 C160.585167,356.739518 163.78394,352.554291 163.78394,347.61859 C163.78394,341.446735 158.780326,336.443807 152.608471,336.443807" id="Fill-50"></path>
        </g>
    </g>
</svg>